<svg xmlns="http://www.w3.org/2000/svg" viewBox="0 0 1000 800" role="img" aria-labelledby="title desc">
<title id="title">Stylized map of Paldea</title>
<desc id="desc">A simplified full-map schematic of Paldea showing major towns and regions used by the guide.</desc>
<defs>
  <filter id="shadow" x="-20%" y="-20%" width="140%" height="140%">
    <feDropShadow dx="0" dy="6" stdDeviation="10" flood-color="#24324a" flood-opacity=".12"/>
  </filter>
</defs>
<rect width="1000" height="800" fill="#cfe9ff"/>
<path d="M163 723 94 639 113 531 73 419 102 280 150 181 261 104 408 58 571 72 718 110 833 201 903 322 922 470 890 619 809 698 699 740 560 729 429 757 308 747 219 739Z"
      fill="#dce8b8" stroke="#95ab68" stroke-width="10" filter="url(#shadow)"/>
<path d="M338 290c74-43 196-58 260-13 55 39 41 111-4 163-74 85-210 109-298 51-75-50-56-153 42-201Z"
      fill="#e6d39b" stroke="#cfb468" stroke-width="6" opacity=".9"/>
<path d="M331 220c33-58 111-116 180-130 44-9 85 2 110 32 17 20 18 46 3 64-23 29-74 36-122 40-92 7-149 20-171 11-17-7-17-9 0-17Z"
      fill="#dbe3e8" stroke="#b7c3cb" stroke-width="6" opacity=".95"/>
<path d="M458 48c42 6 86 30 122 66 35 35 54 72 50 96-5 29-25 52-63 71-65 32-146 25-191-17-28-27-33-68-12-110 27-55 64-89 94-106Z"
      fill="#f0f5f7" stroke="#c6d2d9" stroke-width="6"/>
<path d="M160 146c59-41 126-61 186-54 22 2 29 7 29 18 0 12-11 17-31 20-66 10-108 28-147 62-27 23-48 49-75 49-14 0-24-4-30-12-13-18 7-52 68-83Z"
      fill="#8cc0f8" opacity=".55"/>
<path d="M509 492c33 0 63 27 63 63s-27 63-63 63-63-27-63-63 27-63 63-63Z"
      fill="#86d29d" opacity=".18"/>
<g fill="none" stroke="#ffffff" stroke-width="4" stroke-linecap="round" opacity=".65">
  <path d="M459 498 397 520 335 544 283 560"/>
  <path d="M470 499 560 498 649 460"/>
  <path d="M470 499 407 480 340 239"/>
  <path d="M470 499 560 484 615 250 640 110"/>
</g>
<g fill="#20232d" font-family="Inter, Arial, sans-serif" font-size="23" font-weight="800">
  <text x="450" y="488">Mesagoza</text>
  <text x="239" y="590">Cortondo</text>
  <text x="665" y="456">Artazon</text>
  <text x="860" y="418">Levincia</text>
  <text x="255" y="340">Cascarrafa</text>
  <text x="342" y="232">Medali</text>
  <text x="641" y="103">Montenevera</text>
  <text x="91" y="423">Alfornada</text>
  <text x="506" y="62">Glaseado</text>
  <text x="172" y="104">Casseroya</text>
  <text x="133" y="756">South Province</text>
  <text x="698" y="760">East Province</text>
  <text x="786" y="112">North Province</text>
  <text x="343" y="371">Asado Desert</text>
</g>
<g fill="#ffffff" stroke="#20232d" stroke-width="6">
  <circle cx="470" cy="500" r="15"/>
</g>
<g fill="#ff6b6b" stroke="#20232d" stroke-width="4">
  <circle cx="280" cy="560" r="8"/><circle cx="220" cy="430" r="8"/><circle cx="650" cy="460" r="8"/>
  <circle cx="180" cy="300" r="8"/><circle cx="160" cy="260" r="8"/><circle cx="850" cy="420" r="8"/>
  <circle cx="700" cy="250" r="8"/><circle cx="760" cy="300" r="8"/><circle cx="260" cy="350" r="8"/>
  <circle cx="760" cy="160" r="8"/><circle cx="340" cy="240" r="8"/><circle cx="640" cy="110" r="8"/>
  <circle cx="420" cy="360" r="8"/><circle cx="110" cy="430" r="8"/><circle cx="500" cy="70" r="8"/>
  <circle cx="240" cy="120" r="8"/><circle cx="180" cy="110" r="8"/><circle cx="360" cy="140" r="8"/>
</g>
</svg>
